<svg xmlns="http://www.w3.org/2000/svg" width="25" height="24" fill="none" viewBox="0 0 25 24" id="oracle"><rect width="24" height="24" x=".463" fill="url(#paint0_linear_302_5120)" rx="8"></rect><path fill="#fff" fill-rule="evenodd" d="M9.09091 8.45455C7.0826 8.45455 5.45455 10.0826 5.45455 12.0909C5.45455 14.0992 7.0826 15.7273 9.09091 15.7273H14.9091C16.9174 15.7273 18.5455 14.0992 18.5455 12.0909C18.5455 10.0826 16.9174 8.45455 14.9091 8.45455H9.09091ZM4 12.0909C4 9.27928 6.27928 7 9.09091 7H14.9091C17.7207 7 20 9.27928 20 12.0909C20 14.9025 17.7207 17.1818 14.9091 17.1818H9.09091C6.27928 17.1818 4 14.9025 4 12.0909Z" clip-rule="evenodd"></path><defs><linearGradient id="paint0_linear_302_5120" x1=".463" x2="24.463" y1="12" y2="12" gradientUnits="userSpaceOnUse"><stop stop-color="#ED6D6B"></stop><stop offset="1" stop-color="#F0B076"></stop></linearGradient></defs></svg>